<?xml version="1.0" encoding="UTF-8"?>
<svg width="472px" height="77px" viewBox="0 0 472 77" version="1.1" xmlns="http://www.w3.org/2000/svg" xmlns:xlink="http://www.w3.org/1999/xlink">
    <!-- Generator: Sketch 55.2 (78181) - https://sketchapp.com -->
    <title>Group 3</title>
    <desc>Created with Sketch.</desc>
    <g id="Header-and-Footer" stroke="none" stroke-width="1" fill="none" fill-rule="evenodd">
        <g id="Medium-Devices:-Desktops--Copy-3" transform="translate(-25.000000, -74.000000)" fill="#000000" fill-rule="nonzero">
            <g id="Group-3" transform="translate(25.544000, 74.660000)">
                <path d="M44.352,75.34 L36.864,75.34 L36.864,43.66 L23.744,75.34 L20.544,75.34 L7.488,43.66 L7.488,75.34 L2.84217094e-13,75.34 L2.84217094e-13,32.652 L10.56,32.652 L22.144,60.748 L33.792,32.652 L44.352,32.652 L44.352,75.34 Z M60.928,75.34 L53.44,75.34 L53.44,32.652 L60.928,32.652 L60.928,75.34 Z M90.496,76.108 C77.888,76.108 68.096,67.148 68.096,54.028 C68.096,40.908 77.888,31.948 90.496,31.948 C99.136,31.948 104.448,36.428 107.648,41.548 L101.248,44.812 C99.2,41.292 95.104,38.604 90.496,38.604 C82.048,38.604 75.776,45.068 75.776,54.028 C75.776,62.988 82.048,69.452 90.496,69.452 C95.104,69.452 99.2,66.828 101.248,63.244 L107.648,66.508 C104.384,71.628 99.136,76.108 90.496,76.108 Z M146.688,75.34 L138.048,75.34 L128.576,59.404 L121.152,59.404 L121.152,75.34 L113.664,75.34 L113.664,32.652 L132.416,32.652 C140.864,32.652 146.368,38.156 146.368,46.028 C146.368,53.644 141.376,57.74 136.256,58.572 L146.688,75.34 Z M131.392,52.812 C135.616,52.812 138.688,50.124 138.688,46.028 C138.688,41.932 135.616,39.244 131.392,39.244 L121.152,39.244 L121.152,52.812 L131.392,52.812 Z M173.76,76.108 C160.96,76.108 151.936,66.764 151.936,54.028 C151.936,41.292 160.96,31.948 173.76,31.948 C186.56,31.948 195.584,41.292 195.584,54.028 C195.584,66.764 186.56,76.108 173.76,76.108 Z M173.76,69.452 C182.336,69.452 187.904,62.796 187.904,54.028 C187.904,45.196 182.336,38.604 173.76,38.604 C165.12,38.604 159.616,45.196 159.616,54.028 C159.616,62.796 165.12,69.452 173.76,69.452 Z M224.384,75.34 L202.816,75.34 L202.816,32.652 L223.808,32.652 C231.616,32.652 235.968,37.516 235.968,43.532 C235.968,48.908 232.512,52.492 228.544,53.324 C233.088,54.028 236.8,58.572 236.8,63.82 C236.8,70.412 232.384,75.34 224.384,75.34 Z M222.272,50.316 C226.112,50.316 228.288,48.012 228.288,44.812 C228.288,41.612 226.112,39.244 222.272,39.244 L210.304,39.244 L210.304,50.316 L222.272,50.316 Z M222.592,68.748 C226.688,68.748 229.12,66.508 229.12,62.796 C229.12,59.596 226.88,56.908 222.592,56.908 L210.304,56.908 L210.304,68.748 L222.592,68.748 Z M251.776,75.34 L244.288,75.34 L244.288,32.652 L251.776,32.652 L251.776,75.34 Z M280.768,76.108 C267.968,76.108 258.944,66.764 258.944,54.028 C258.944,41.292 267.968,31.948 280.768,31.948 C293.568,31.948 302.592,41.292 302.592,54.028 C302.592,66.764 293.568,76.108 280.768,76.108 Z M280.768,69.452 C289.344,69.452 294.912,62.796 294.912,54.028 C294.912,45.196 289.344,38.604 280.768,38.604 C272.128,38.604 266.624,45.196 266.624,54.028 C266.624,62.796 272.128,69.452 280.768,69.452 Z M336.128,75.34 L309.824,75.34 L309.824,32.652 L317.312,32.652 L317.312,68.748 L336.128,68.748 L336.128,75.34 Z M360.896,76.108 C348.096,76.108 339.072,66.764 339.072,54.028 C339.072,41.292 348.096,31.948 360.896,31.948 C373.696,31.948 382.72,41.292 382.72,54.028 C382.72,66.764 373.696,76.108 360.896,76.108 Z M360.896,69.452 C369.472,69.452 375.04,62.796 375.04,54.028 C375.04,45.196 369.472,38.604 360.896,38.604 C352.256,38.604 346.752,45.196 346.752,54.028 C346.752,62.796 352.256,69.452 360.896,69.452 Z M410.432,76.172 C398.08,76.172 388.032,67.404 388.032,54.028 C388.032,40.652 398.08,31.948 410.432,31.948 C418.752,31.948 424.192,35.916 427.648,40.844 L421.504,44.3 C419.264,41.1 415.232,38.604 410.432,38.604 C401.984,38.604 395.712,45.068 395.712,54.028 C395.712,62.988 401.984,69.516 410.432,69.516 C414.784,69.516 418.624,67.468 420.544,65.676 L420.544,59.02 L407.808,59.02 L407.808,52.428 L428.032,52.428 L428.032,68.428 C423.808,73.1 417.856,76.172 410.432,76.172 Z M454.464,75.34 L446.976,75.34 L446.976,57.612 L430.4,32.652 L438.976,32.652 L450.752,50.956 L462.4,32.652 L470.976,32.652 L454.464,57.612 L454.464,75.34 Z" id="MICROBIOLOGY"></path>
                <path d="M7.336,20.34 L0.946,20.34 L0.946,0.33 L7.336,0.33 C13.546,0.33 17.446,4.86 17.446,10.35 C17.446,15.9 13.546,20.34 7.336,20.34 Z M7.336,18.78 C12.616,18.78 15.646,15.03 15.646,10.35 C15.646,5.67 12.646,1.89 7.336,1.89 L2.656,1.89 L2.656,18.78 L7.336,18.78 Z M34.396,20.34 L21.706,20.34 L21.706,0.33 L34.396,0.33 L34.396,1.89 L23.416,1.89 L23.416,9.3 L34.186,9.3 L34.186,10.86 L23.416,10.86 L23.416,18.78 L34.396,18.78 L34.396,20.34 Z M40.336,20.34 L38.626,20.34 L38.626,0.33 L46.126,0.33 C49.966,0.33 52.156,3.03 52.156,6.18 C52.156,9.33 49.936,12.03 46.126,12.03 L40.336,12.03 L40.336,20.34 Z M45.946,10.47 C48.586,10.47 50.356,8.7 50.356,6.18 C50.356,3.66 48.586,1.89 45.946,1.89 L40.336,1.89 L40.336,10.47 L45.946,10.47 Z M69.856,20.34 L67.876,20.34 L65.896,15.42 L55.306,15.42 L53.326,20.34 L51.346,20.34 L59.536,0.33 L61.666,0.33 L69.856,20.34 Z M65.326,13.86 L60.586,2.16 L55.876,13.86 L65.326,13.86 Z M86.596,20.34 L84.526,20.34 L78.916,12.06 L74.506,12.06 L74.506,20.34 L72.796,20.34 L72.796,0.33 L80.266,0.33 C83.716,0.33 86.356,2.52 86.356,6.18 C86.356,9.81 83.776,11.82 80.806,11.94 L86.596,20.34 Z M80.116,10.5 C82.756,10.5 84.556,8.7 84.556,6.18 C84.556,3.66 82.756,1.89 80.116,1.89 L74.506,1.89 L74.506,10.5 L80.116,10.5 Z M97.156,20.34 L95.416,20.34 L95.416,1.89 L88.876,1.89 L88.876,0.33 L103.696,0.33 L103.696,1.89 L97.156,1.89 L97.156,20.34 Z M125.956,20.34 L124.216,20.34 L124.216,2.67 L116.926,20.34 L116.266,20.34 L108.946,2.67 L108.946,20.34 L107.236,20.34 L107.236,0.33 L109.786,0.33 L116.596,16.83 L123.376,0.33 L125.956,0.33 L125.956,20.34 Z M143.626,20.34 L130.936,20.34 L130.936,0.33 L143.626,0.33 L143.626,1.89 L132.646,1.89 L132.646,9.3 L143.416,9.3 L143.416,10.86 L132.646,10.86 L132.646,18.78 L143.626,18.78 L143.626,20.34 Z M163.846,20.34 L162.166,20.34 L149.566,3.15 L149.566,20.34 L147.856,20.34 L147.856,0.33 L149.596,0.33 L162.136,17.28 L162.136,0.33 L163.846,0.33 L163.846,20.34 Z M175.666,20.34 L173.926,20.34 L173.926,1.89 L167.386,1.89 L167.386,0.33 L182.206,0.33 L182.206,1.89 L175.666,1.89 L175.666,20.34 Z M202.486,20.7 C196.606,20.7 192.766,16.2 192.766,10.35 C192.766,4.5 196.606,-9.23705556e-14 202.486,-9.23705556e-14 C208.336,-9.23705556e-14 212.206,4.5 212.206,10.35 C212.206,16.2 208.336,20.7 202.486,20.7 Z M202.486,19.14 C207.286,19.14 210.406,15.39 210.406,10.35 C210.406,5.25 207.286,1.56 202.486,1.56 C197.626,1.56 194.566,5.25 194.566,10.35 C194.566,15.39 197.626,19.14 202.486,19.14 Z M218.146,20.34 L216.436,20.34 L216.436,0.33 L229.126,0.33 L229.126,1.89 L218.146,1.89 L218.146,9.3 L228.916,9.3 L228.916,10.86 L218.146,10.86 L218.146,20.34 Z" id="DEPARTMENTOF"></path>
            </g>
        </g>
    </g>
</svg>